# xmcd
#
# Track frame offsets: 
#        150
#        19072
#        37467
#        56000
#        81417
#        101072
#        123620
#        144145
#        163350
#        187042
#        210887
#
# Disc length: 3085 seconds
#
# Revision: 0
# Processed by: cddbd v1.5.2PL0 Copyright (c) Steve Scherf et al.
# Submitted via: ExactAudioCopy v0.99pb4
#
DISCID=a10c0b0b
DTITLE=李嘉 - 國語轉調3
DYEAR=1992
DGENRE=Pop
TTITLE0=零下幾度C
TTITLE1=認真的眼睛
TTITLE2=親愛的
TTITLE3=情愁也美麗
TTITLE4=最想念的季節
TTITLE5=坦白
TTITLE6=珍重.真愛
TTITLE7=我愛你這樣深
TTITLE8=人生如夢
TTITLE9=證明
TTITLE10=冬季到台北來看雨
EXTD=
EXTT0=
EXTT1=
EXTT2=
EXTT3=
EXTT4=
EXTT5=
EXTT6=
EXTT7=
EXTT8=
EXTT9=
EXTT10=
PLAYORDER=
